<svg xmlns="http://www.w3.org/2000/svg" width="23.911" height="20.71" viewBox="0 0 23.911 20.71">
  <path id="Basket" d="M837.5,867.728a2.033,2.033,0,1,1-2.032-1.986A2.009,2.009,0,0,1,837.5,867.728Zm-8.459,0A2.033,2.033,0,1,1,827,865.742,2.009,2.009,0,0,1,829.037,867.728Zm7.772-3.9H826.139a1.13,1.13,0,0,1-1.093-.813l-3.327-11.8h-2.592a1.108,1.108,0,1,1,0-2.216h3.455a1.131,1.131,0,0,1,1.093.813l3.327,11.8h9.078L839,855.39H828.984a1.108,1.108,0,1,1,0-2.216h11.787a1.141,1.141,0,0,1,.954.51,1.088,1.088,0,0,1,.076,1.06l-3.963,8.44A1.136,1.136,0,0,1,836.809,863.83Z" transform="translate(-817.994 -849.003)" fill="#413e65" fill-rule="evenodd"/>
</svg>
