<svg id="Icon" xmlns="http://www.w3.org/2000/svg" width="31" height="36" viewBox="0 0 31 36">
  <g id="layout-11">
    <path id="Path" d="M12.014,20.7H.751A.775.775,0,0,1,0,19.9V.8A.775.775,0,0,1,.751,0H12.014a.775.775,0,0,1,.751.8V19.9A.775.775,0,0,1,12.014,20.7Z" fill="#5454d4"/>
    <path id="Path-2" data-name="Path" d="M12.014,11.7H.751A.8.8,0,0,1,0,10.864V.836A.8.8,0,0,1,.751,0H12.014a.8.8,0,0,1,.751.836V10.864A.8.8,0,0,1,12.014,11.7Z" transform="translate(0 24.3)" fill="#d8d7e6"/>
    <path id="Path-3" data-name="Path" d="M12.014,11.7H.751A.8.8,0,0,1,0,10.864V.836A.8.8,0,0,1,.751,0H12.014a.8.8,0,0,1,.751.836V10.864A.8.8,0,0,1,12.014,11.7Z" transform="translate(18.235)" fill="#d8d7e6"/>
    <path id="Path-4" data-name="Path" d="M12.014,20.7H.751A.775.775,0,0,1,0,19.9V.8A.775.775,0,0,1,.751,0H12.014a.775.775,0,0,1,.751.8V19.9A.775.775,0,0,1,12.014,20.7Z" transform="translate(18.235 15.3)" fill="#5454d4"/>
  </g>
</svg>
