<svg id="Icon" xmlns="http://www.w3.org/2000/svg" width="37" height="37" viewBox="0 0 37 37">
  <g id="layers-3">
    <path id="Path" d="M36.583,2.124,32.934,0,19.755,7.663a2.478,2.478,0,0,1-2.5,0L4.076,0,.423,2.124a.864.864,0,0,0,0,1.487l17.66,10.277a.828.828,0,0,0,.834,0L36.577,3.611a.864.864,0,0,0,0-1.487Z" transform="translate(0 23)" fill="#5454d4"/>
    <path id="Path-2" data-name="Path" d="M36.583,2.124,32.934,0,19.755,7.663a2.478,2.478,0,0,1-2.5,0L4.076,0,.423,2.124a.864.864,0,0,0,0,1.487l17.66,10.277a.828.828,0,0,0,.834,0L36.577,3.611a.864.864,0,0,0,0-1.487Z" transform="translate(0 16)" fill="#d8d7e6"/>
    <path id="Path-3" data-name="Path" d="M36.577,10.266,18.917.111a.836.836,0,0,0-.834,0L.423,10.266a.849.849,0,0,0,0,1.469l17.66,10.154a.836.836,0,0,0,.834,0l17.66-10.154a.849.849,0,0,0,0-1.469Z" fill="#5454d4"/>
  </g>
</svg>
