<svg xmlns="http://www.w3.org/2000/svg" width="36" height="36" viewBox="0 0 36 36">
  <g id="Icon" transform="translate(0 0)">
    <g id="responsive">
      <path id="Path" d="M1.579,1.548H15V0H.789A.781.781,0,0,0,0,.774V23.226A.781.781,0,0,0,.789,24H3.158V22.452H1.579Z" transform="translate(0 6)" fill="#d8d7e6"/>
      <path id="Shape" d="M9.23,14H.769A.775.775,0,0,1,0,13.222V.778A.774.774,0,0,1,.769,0H9.23A.774.774,0,0,1,10,.778V13.222A.775.775,0,0,1,9.23,14ZM5,9.333A1.167,1.167,0,1,0,6.154,10.5,1.162,1.162,0,0,0,5,9.333Z" transform="translate(5 22)" fill="#5454d4"/>
      <path id="Shape-2" data-name="Shape" d="M13.421,17H1.579A1.564,1.564,0,0,1,0,15.455V1.545A1.564,1.564,0,0,1,1.579,0H13.421A1.564,1.564,0,0,1,15,1.545v13.91A1.564,1.564,0,0,1,13.421,17ZM7.5,12.363a1.159,1.159,0,1,0,1.184,1.159A1.173,1.173,0,0,0,7.5,12.363Z" transform="translate(16)" fill="#5454d4"/>
      <path id="Path-2" data-name="Path" d="M19.2,0H16.8V1.556h1.6v21H0V28H8a.778.778,0,1,0,0-1.556H4.8V24.111H19.2a.788.788,0,0,0,.8-.778V.778A.788.788,0,0,0,19.2,0Z" transform="translate(16 6)" fill="#d8d7e6"/>
    </g>
  </g>
</svg>
